<svg width="48" height="48" viewBox="0 0 48 48" fill="none" xmlns="http://www.w3.org/2000/svg">
<rect x="0.5" y="0.5" width="47" height="47" rx="2.5" stroke="#CCCCCC"/>
<mask id="mask0_109_3101" style="mask-type:alpha" maskUnits="userSpaceOnUse" x="12" y="12" width="24" height="25">
<rect x="12" y="12.5" width="24" height="24" fill="#D9D9D9"/>
</mask>
<g mask="url(#mask0_109_3101)">
<path d="M23 29.55V19.7C22.3167 19.3 21.5917 19 20.825 18.8C20.0583 18.6 19.2833 18.5 18.5 18.5C17.9 18.5 17.3042 18.5583 16.7125 18.675C16.1208 18.7917 15.55 18.9667 15 19.2V29.1C15.5833 28.9 16.1625 28.75 16.7375 28.65C17.3125 28.55 17.9 28.5 18.5 28.5C19.2833 28.5 20.0458 28.5875 20.7875 28.7625C21.5292 28.9375 22.2667 29.2 23 29.55ZM24 32.5C23.2 31.8667 22.3333 31.375 21.4 31.025C20.4667 30.675 19.5 30.5 18.5 30.5C17.8 30.5 17.1125 30.5917 16.4375 30.775C15.7625 30.9583 15.1167 31.2167 14.5 31.55C14.15 31.7333 13.8125 31.725 13.4875 31.525C13.1625 31.325 13 31.0333 13 30.65V18.6C13 18.4167 13.0458 18.2417 13.1375 18.075C13.2292 17.9083 13.3667 17.7833 13.55 17.7C14.3167 17.3 15.1167 17 15.95 16.8C16.7833 16.6 17.6333 16.5 18.5 16.5C19.7333 16.5 20.7833 16.6417 21.65 16.925C22.5167 17.2083 23.45 17.6417 24.45 18.225C24.6333 18.325 24.7708 18.4417 24.8625 18.575C24.9542 18.7083 25 18.8833 25 19.1V29.55C25.7333 29.2 26.4708 28.9375 27.2125 28.7625C27.9542 28.5875 28.7167 28.5 29.5 28.5C30.1 28.5 30.6875 28.55 31.2625 28.65C31.8375 28.75 32.4167 28.9 33 29.1V17.075C33.25 17.1583 33.4958 17.25 33.7375 17.35C33.9792 17.45 34.2167 17.5667 34.45 17.7C34.6333 17.7833 34.7708 17.9083 34.8625 18.075C34.9542 18.2417 35 18.4167 35 18.6V30.65C35 31.0333 34.8375 31.325 34.5125 31.525C34.1875 31.725 33.85 31.7333 33.5 31.55C32.8833 31.2167 32.2375 30.9583 31.5625 30.775C30.8875 30.5917 30.2 30.5 29.5 30.5C28.5 30.5 27.5333 30.675 26.6 31.025C25.6667 31.375 24.8 31.8667 24 32.5ZM27.5 26.5V15.5L30.5 14.5V25.5L27.5 26.5Z" fill="#1C1B1F"/>
</g>
</svg>
