<svg width="152" height="32" viewBox="0 0 152 32" fill="none" xmlns="http://www.w3.org/2000/svg">
<path d="M18.504 24L23.304 7.2H27.864L32.64 24H29.976L28.872 20.04H22.296L21.192 24H18.504ZM22.944 17.64H28.224L25.776 8.808H25.392L22.944 17.64ZM40.6761 24V7.2H43.2681V21.648H51.3561V24H40.6761ZM59.4908 24V7.2H70.0748V9.552H62.0828V14.376H69.4028V16.728H62.0828V21.648H70.1948V24H59.4908ZM78.657 24V7.2H83.649L88.209 22.272H88.593V7.2H91.161V24H86.169L81.609 8.904H81.225V24H78.657ZM104.433 24V9.552H99.2728V7.2H112.185V9.552H107.025V24H104.433ZM125.903 24.336C123.839 24.336 122.199 23.76 120.983 22.608C119.767 21.44 119.159 19.76 119.159 17.568V13.632C119.159 11.44 119.767 9.768 120.983 8.616C122.199 7.448 123.839 6.864 125.903 6.864C127.967 6.864 129.607 7.448 130.823 8.616C132.055 9.768 132.671 11.44 132.671 13.632V17.568C132.671 19.76 132.055 21.44 130.823 22.608C129.607 23.76 127.967 24.336 125.903 24.336ZM125.903 22.008C127.231 22.008 128.255 21.624 128.975 20.856C129.695 20.072 130.055 19.008 130.055 17.664V13.536C130.055 12.192 129.695 11.136 128.975 10.368C128.255 9.584 127.231 9.192 125.903 9.192C124.607 9.192 123.591 9.584 122.855 10.368C122.119 11.136 121.751 12.192 121.751 13.536V17.664C121.751 19.008 122.119 20.072 122.855 20.856C123.591 21.624 124.607 22.008 125.903 22.008Z" fill="#383838"/>
</svg>
